<svg width="141.93747558593748px" height="121.39999999999999px" xmlns="http://www.w3.org/2000/svg" viewBox="179.03126220703126 14.300000000000004 141.93747558593748 121.39999999999999" style="background:#051103" preserveAspectRatio="xMidYMid"><defs><linearGradient id="editing-glowing-gradient" x1="0.8146601955249186" x2="0.18533980447508142" y1="0.8885729807284856" y2="0.11142701927151444"><stop offset="0" stop-color="#67ff43"></stop><stop offset="1" stop-color="#90ffff"></stop></linearGradient><filter id="editing-glowing" x="-100%" y="-100%" width="300%" height="300%"><feGaussianBlur in="SourceGraphic" result="blur" stdDeviation="10"></feGaussianBlur><feMerge><feMergeNode in="blur"></feMergeNode><feMergeNode in="SourceGraphic"></feMergeNode></feMerge></filter></defs><g filter="url(#editing-glowing)"><g transform="translate(204.43207788467407, 97.46500015258789)"><path d="M6.21-31.17L6.21-31.17L6.21-31.17Q4.03-32.83 4.03-36.38L4.03-36.38L4.03-36.38Q4.03-39.94 6.37-41.79L6.37-41.79L6.37-41.79Q8.70-43.65 12.74-43.65L12.74-43.65L12.74-43.65Q15.30-43.65 21.38-42.75L21.38-42.75L25.73-42.11L25.73-42.11Q27.90-41.86 30.18-41.86L30.18-41.86L30.18-41.86Q32.45-41.86 33.98-42.82L33.98-42.82L33.98-42.82Q36.29-40.77 36.29-37.82L36.29-37.82L36.29-37.82Q36.29-34.88 33.66-32.77L33.66-32.77L33.66-32.77Q30.98-30.53 27.52-30.53L27.52-30.53L27.52-30.53Q25.86-30.53 23.17-30.98L23.17-30.98L23.17-30.98Q20.03-21.12 20.03-14.27L20.03-14.27L20.03-14.27Q20.03-7.42 23.49-3.84L23.49-3.84L23.49-3.84Q21.89-0.96 19.52 0.16L19.52 0.16L19.52 0.16Q17.15 1.28 13.60 1.28L13.60 1.28L13.60 1.28Q10.05 1.28 7.84-0.67L7.84-0.67L7.84-0.67Q5.63-2.62 5.63-6.66L5.63-6.66L5.63-6.66Q5.63-11.33 8.19-19.01L8.19-19.01L8.19-19.01Q10.75-26.62 14.59-32.45L14.59-32.45L14.59-32.45Q12.74-32.64 10.82-32.64L10.82-32.64L10.82-32.64Q6.85-32.64 6.21-31.17ZM32.32-10.37L32.32-10.37L32.32-10.37Q30.27-11.84 30.27-14.66L30.27-14.66L30.27-14.66Q30.27-16.19 31.04-17.44L31.04-17.44L31.04-17.44Q31.81-18.69 33.34-18.88L33.34-18.88L45.95-18.88L45.95-18.88Q48.06-18.88 48.70-20.16L48.70-20.16L48.70-20.16Q49.73-19.58 50.18-18.37L50.18-18.37L50.18-18.37Q50.62-17.15 50.62-15.87L50.62-15.87L50.62-15.87Q50.62-14.59 49.63-13.34L49.63-13.34L49.63-13.34Q48.64-12.10 47.17-11.97L47.17-11.97L35.46-11.97L35.46-11.97Q34.11-11.97 33.47-11.55L33.47-11.55L33.47-11.55Q32.83-11.14 32.32-10.37ZM60.16-31.17L60.16-31.17L60.16-31.17Q57.98-32.83 57.98-36.38L57.98-36.38L57.98-36.38Q57.98-39.94 60.32-41.79L60.32-41.79L60.32-41.79Q62.66-43.65 66.69-43.65L66.69-43.65L66.69-43.65Q69.25-43.65 75.33-42.75L75.33-42.75L79.68-42.11L79.68-42.11Q81.86-41.86 84.13-41.86L84.13-41.86L84.13-41.86Q86.40-41.86 87.94-42.82L87.94-42.82L87.94-42.82Q90.24-40.77 90.24-37.82L90.24-37.82L90.24-37.82Q90.24-34.88 87.62-32.77L87.62-32.77L87.62-32.77Q84.93-30.53 81.47-30.53L81.47-30.53L81.47-30.53Q79.81-30.53 77.12-30.98L77.12-30.98L77.12-30.98Q73.98-21.12 73.98-14.27L73.98-14.27L73.98-14.27Q73.98-7.42 77.44-3.84L77.44-3.84L77.44-3.84Q75.84-0.96 73.47 0.16L73.47 0.16L73.47 0.16Q71.10 1.28 67.55 1.28L67.55 1.28L67.55 1.28Q64 1.28 61.79-0.67L61.79-0.67L61.79-0.67Q59.58-2.62 59.58-6.66L59.58-6.66L59.58-6.66Q59.58-11.33 62.14-19.01L62.14-19.01L62.14-19.01Q64.70-26.62 68.54-32.45L68.54-32.45L68.54-32.45Q66.69-32.64 64.77-32.64L64.77-32.64L64.77-32.64Q60.80-32.64 60.16-31.17Z" fill="url(#editing-glowing-gradient)"></path></g></g><style>text {
  font-size: 64px;
  font-family: Arial Black;
  dominant-baseline: central;
  text-anchor: middle;
}</style></svg>